<mxfile host="app.diagrams.net" agent="Mozilla/5.0 (X11; Linux x86_64; rv:128.0) Gecko/20100101 Firefox/128.0" version="26.0.16" pages="3">
  <diagram name="Sensors" id="z7QYfls0CIEdqmpHnuwo">
    <mxGraphModel dx="2284" dy="1826" grid="1" gridSize="10" guides="1" tooltips="1" connect="1" arrows="1" fold="1" page="1" pageScale="1" pageWidth="850" pageHeight="1100" math="0" shadow="0">
      <root>
        <mxCell id="0" />
        <mxCell id="1" parent="0" />
        <mxCell id="lXedflFvbLRf5bmaXI45-3" value="" style="rounded=1;whiteSpace=wrap;html=1;" vertex="1" parent="1">
          <mxGeometry x="-20" y="-70" width="530" height="410" as="geometry" />
        </mxCell>
        <mxCell id="lXedflFvbLRf5bmaXI45-2" value="" style="rounded=1;whiteSpace=wrap;html=1;" vertex="1" parent="1">
          <mxGeometry x="-30" y="-80" width="530" height="410" as="geometry" />
        </mxCell>
        <mxCell id="lXedflFvbLRf5bmaXI45-1" value="" style="rounded=1;whiteSpace=wrap;html=1;" vertex="1" parent="1">
          <mxGeometry x="-40" y="-90" width="530" height="410" as="geometry" />
        </mxCell>
        <mxCell id="kvE_GCw-waAO9JVOzVsJ-6" style="edgeStyle=orthogonalEdgeStyle;rounded=0;orthogonalLoop=1;jettySize=auto;html=1;" edge="1" parent="1" source="kvE_GCw-waAO9JVOzVsJ-1">
          <mxGeometry relative="1" as="geometry">
            <mxPoint x="360" y="130" as="targetPoint" />
          </mxGeometry>
        </mxCell>
        <mxCell id="kvE_GCw-waAO9JVOzVsJ-7" value="Core not used" style="edgeLabel;html=1;align=center;verticalAlign=middle;resizable=0;points=[];" vertex="1" connectable="0" parent="kvE_GCw-waAO9JVOzVsJ-6">
          <mxGeometry x="-0.1701" y="4" relative="1" as="geometry">
            <mxPoint as="offset" />
          </mxGeometry>
        </mxCell>
        <mxCell id="kvE_GCw-waAO9JVOzVsJ-1" value="Start at Random" style="rounded=1;whiteSpace=wrap;html=1;" vertex="1" parent="1">
          <mxGeometry x="160" y="100" width="120" height="60" as="geometry" />
        </mxCell>
        <mxCell id="kvE_GCw-waAO9JVOzVsJ-2" value="" style="endArrow=classic;html=1;rounded=0;" edge="1" parent="1">
          <mxGeometry width="50" height="50" relative="1" as="geometry">
            <mxPoint x="210" y="160" as="sourcePoint" />
            <mxPoint x="210" y="230" as="targetPoint" />
          </mxGeometry>
        </mxCell>
        <mxCell id="kvE_GCw-waAO9JVOzVsJ-4" value="Core Used" style="edgeLabel;html=1;align=center;verticalAlign=middle;resizable=0;points=[];" vertex="1" connectable="0" parent="kvE_GCw-waAO9JVOzVsJ-2">
          <mxGeometry x="-0.2857" y="1" relative="1" as="geometry">
            <mxPoint as="offset" />
          </mxGeometry>
        </mxCell>
        <mxCell id="kvE_GCw-waAO9JVOzVsJ-17" style="edgeStyle=orthogonalEdgeStyle;rounded=0;orthogonalLoop=1;jettySize=auto;html=1;entryX=1;entryY=0.75;entryDx=0;entryDy=0;curved=1;" edge="1" parent="1" source="kvE_GCw-waAO9JVOzVsJ-3" target="kvE_GCw-waAO9JVOzVsJ-16">
          <mxGeometry relative="1" as="geometry" />
        </mxCell>
        <mxCell id="kvE_GCw-waAO9JVOzVsJ-18" value="PWM used" style="edgeLabel;html=1;align=center;verticalAlign=middle;resizable=0;points=[];" vertex="1" connectable="0" parent="kvE_GCw-waAO9JVOzVsJ-17">
          <mxGeometry x="-0.1172" y="3" relative="1" as="geometry">
            <mxPoint as="offset" />
          </mxGeometry>
        </mxCell>
        <mxCell id="kvE_GCw-waAO9JVOzVsJ-3" value="Count up" style="rounded=1;whiteSpace=wrap;html=1;" vertex="1" parent="1">
          <mxGeometry x="160" y="230" width="120" height="60" as="geometry" />
        </mxCell>
        <mxCell id="kvE_GCw-waAO9JVOzVsJ-5" value="Sensor" style="text;html=1;align=center;verticalAlign=middle;whiteSpace=wrap;rounded=0;" vertex="1" parent="1">
          <mxGeometry x="180" y="50" width="60" height="30" as="geometry" />
        </mxCell>
        <mxCell id="kvE_GCw-waAO9JVOzVsJ-19" style="edgeStyle=orthogonalEdgeStyle;rounded=0;orthogonalLoop=1;jettySize=auto;html=1;entryX=1;entryY=0;entryDx=0;entryDy=0;curved=1;" edge="1" parent="1" source="kvE_GCw-waAO9JVOzVsJ-8" target="kvE_GCw-waAO9JVOzVsJ-11">
          <mxGeometry relative="1" as="geometry">
            <Array as="points">
              <mxPoint x="460" y="30" />
              <mxPoint x="420" y="30" />
              <mxPoint x="420" y="-40" />
            </Array>
          </mxGeometry>
        </mxCell>
        <mxCell id="kvE_GCw-waAO9JVOzVsJ-20" value="PWM used" style="edgeLabel;html=1;align=center;verticalAlign=middle;resizable=0;points=[];" vertex="1" connectable="0" parent="kvE_GCw-waAO9JVOzVsJ-19">
          <mxGeometry x="-0.1159" y="-2" relative="1" as="geometry">
            <mxPoint as="offset" />
          </mxGeometry>
        </mxCell>
        <mxCell id="kvE_GCw-waAO9JVOzVsJ-8" value="Count down slowly to 30" style="rounded=1;whiteSpace=wrap;html=1;" vertex="1" parent="1">
          <mxGeometry x="360" y="100" width="120" height="60" as="geometry" />
        </mxCell>
        <mxCell id="kvE_GCw-waAO9JVOzVsJ-11" value="Count down slowly to 30 more quickly" style="rounded=1;whiteSpace=wrap;html=1;" vertex="1" parent="1">
          <mxGeometry x="200" y="-40" width="120" height="60" as="geometry" />
        </mxCell>
        <mxCell id="kvE_GCw-waAO9JVOzVsJ-12" style="edgeStyle=orthogonalEdgeStyle;rounded=0;orthogonalLoop=1;jettySize=auto;html=1;entryX=0.5;entryY=1;entryDx=0;entryDy=0;curved=1;" edge="1" parent="1" source="kvE_GCw-waAO9JVOzVsJ-1" target="kvE_GCw-waAO9JVOzVsJ-11">
          <mxGeometry relative="1" as="geometry" />
        </mxCell>
        <mxCell id="kvE_GCw-waAO9JVOzVsJ-13" value="PWM used" style="edgeLabel;html=1;align=center;verticalAlign=middle;resizable=0;points=[];" vertex="1" connectable="0" parent="kvE_GCw-waAO9JVOzVsJ-12">
          <mxGeometry x="-0.1224" y="-4" relative="1" as="geometry">
            <mxPoint as="offset" />
          </mxGeometry>
        </mxCell>
        <mxCell id="kvE_GCw-waAO9JVOzVsJ-14" style="edgeStyle=orthogonalEdgeStyle;rounded=0;orthogonalLoop=1;jettySize=auto;html=1;curved=1;entryX=0.917;entryY=0;entryDx=0;entryDy=0;entryPerimeter=0;" edge="1" parent="1" source="kvE_GCw-waAO9JVOzVsJ-8" target="kvE_GCw-waAO9JVOzVsJ-3">
          <mxGeometry relative="1" as="geometry">
            <mxPoint x="270" y="220" as="targetPoint" />
            <Array as="points">
              <mxPoint x="270" y="160" />
            </Array>
          </mxGeometry>
        </mxCell>
        <mxCell id="kvE_GCw-waAO9JVOzVsJ-15" value="Core Used" style="edgeLabel;html=1;align=center;verticalAlign=middle;resizable=0;points=[];" vertex="1" connectable="0" parent="kvE_GCw-waAO9JVOzVsJ-14">
          <mxGeometry x="-0.3922" y="2" relative="1" as="geometry">
            <mxPoint as="offset" />
          </mxGeometry>
        </mxCell>
        <mxCell id="kvE_GCw-waAO9JVOzVsJ-16" value="Stay Constant" style="rounded=1;whiteSpace=wrap;html=1;" vertex="1" parent="1">
          <mxGeometry x="-20" y="100" width="120" height="60" as="geometry" />
        </mxCell>
        <mxCell id="kvE_GCw-waAO9JVOzVsJ-21" style="edgeStyle=orthogonalEdgeStyle;rounded=0;orthogonalLoop=1;jettySize=auto;html=1;entryX=0.342;entryY=0.983;entryDx=0;entryDy=0;entryPerimeter=0;curved=1;" edge="1" parent="1" source="kvE_GCw-waAO9JVOzVsJ-3" target="kvE_GCw-waAO9JVOzVsJ-8">
          <mxGeometry relative="1" as="geometry" />
        </mxCell>
        <mxCell id="kvE_GCw-waAO9JVOzVsJ-22" value="Core Not Used" style="edgeLabel;html=1;align=center;verticalAlign=middle;resizable=0;points=[];" vertex="1" connectable="0" parent="kvE_GCw-waAO9JVOzVsJ-21">
          <mxGeometry x="0.4731" y="29" relative="1" as="geometry">
            <mxPoint as="offset" />
          </mxGeometry>
        </mxCell>
        <mxCell id="Kdn3re7TsG2npQfGSAUo-1" value="3 Sensors " style="rounded=1;whiteSpace=wrap;html=1;" vertex="1" parent="1">
          <mxGeometry x="185" y="-160" width="120" height="60" as="geometry" />
        </mxCell>
      </root>
    </mxGraphModel>
  </diagram>
  <diagram id="OFvr3_Ze6BXcCYAkeyO0" name="Central Processing">
    <mxGraphModel dx="1434" dy="726" grid="1" gridSize="10" guides="1" tooltips="1" connect="1" arrows="1" fold="1" page="1" pageScale="1" pageWidth="850" pageHeight="1100" math="0" shadow="0">
      <root>
        <mxCell id="0" />
        <mxCell id="1" parent="0" />
        <mxCell id="e35c7TaC6XhNd6nNbpjI-1" value="Reset " style="rounded=1;whiteSpace=wrap;html=1;" vertex="1" parent="1">
          <mxGeometry x="370" y="300" width="120" height="60" as="geometry" />
        </mxCell>
        <mxCell id="e35c7TaC6XhNd6nNbpjI-2" value="Central Processing" style="text;html=1;align=center;verticalAlign=middle;whiteSpace=wrap;rounded=0;" vertex="1" parent="1">
          <mxGeometry x="350" y="90" width="60" height="30" as="geometry" />
        </mxCell>
        <mxCell id="OLV7tPsO2JYTpCUl6rM--1" value="Reset&lt;br&gt;&lt;div&gt;Check 1st Sensor, use if less than 75&lt;/div&gt;&lt;div&gt;else&lt;br&gt;&lt;/div&gt;&lt;div&gt;Check 2nd Sensor, use if less than 75&lt;/div&gt;&lt;div&gt;else&amp;nbsp;&lt;/div&gt;&lt;div&gt;Check 3rd Sensor, use if less than 75&amp;nbsp;&lt;/div&gt;&lt;div&gt;else&amp;nbsp;&lt;/div&gt;&lt;div&gt;Wait &lt;br&gt;&lt;/div&gt;" style="text;html=1;align=center;verticalAlign=middle;resizable=0;points=[];autosize=1;strokeColor=none;fillColor=none;" vertex="1" parent="1">
          <mxGeometry x="590" y="160" width="230" height="130" as="geometry" />
        </mxCell>
        <mxCell id="OLV7tPsO2JYTpCUl6rM--2" value="&lt;div&gt;if Sensor &amp;gt; 75, check others, &lt;br&gt;&lt;/div&gt;&lt;div&gt;switch to the lowest temperature&lt;br&gt;&lt;/div&gt;&lt;div&gt;&lt;br&gt;&lt;/div&gt;&lt;div&gt;Else&lt;br&gt;Stay in the core&lt;br&gt;&lt;/div&gt;" style="text;html=1;align=center;verticalAlign=middle;resizable=0;points=[];autosize=1;strokeColor=none;fillColor=none;" vertex="1" parent="1">
          <mxGeometry x="100" y="165" width="190" height="90" as="geometry" />
        </mxCell>
      </root>
    </mxGraphModel>
  </diagram>
  <diagram id="_SnjAS1dz1_-d7zM6IFp" name="Cooling System">
    <mxGraphModel dx="989" dy="501" grid="1" gridSize="10" guides="1" tooltips="1" connect="1" arrows="1" fold="1" page="1" pageScale="1" pageWidth="850" pageHeight="1100" math="0" shadow="0">
      <root>
        <mxCell id="0" />
        <mxCell id="1" parent="0" />
        <mxCell id="hApYpysLvm_JZzYVFy6F-1" value="" style="rounded=1;whiteSpace=wrap;html=1;" vertex="1" parent="1">
          <mxGeometry x="260" y="30" width="150" height="30" as="geometry" />
        </mxCell>
        <mxCell id="8JjCi7ErUcnYg4hCcZGx-4" value="" style="rounded=1;whiteSpace=wrap;html=1;" vertex="1" parent="1">
          <mxGeometry x="230" y="70" width="210" height="50" as="geometry" />
        </mxCell>
        <mxCell id="8JjCi7ErUcnYg4hCcZGx-3" value="" style="rounded=1;whiteSpace=wrap;html=1;" vertex="1" parent="1">
          <mxGeometry x="220" y="80" width="210" height="53" as="geometry" />
        </mxCell>
        <mxCell id="8JjCi7ErUcnYg4hCcZGx-2" value="" style="rounded=1;whiteSpace=wrap;html=1;" vertex="1" parent="1">
          <mxGeometry x="210" y="93" width="210" height="57" as="geometry" />
        </mxCell>
        <mxCell id="wEJXauFWFnn9xlXOYT_c-1" value="3 Cooling System Fans" style="text;html=1;align=center;verticalAlign=middle;resizable=0;points=[];autosize=1;strokeColor=none;fillColor=none;" vertex="1" parent="1">
          <mxGeometry x="260" y="30" width="150" height="30" as="geometry" />
        </mxCell>
        <mxCell id="8JjCi7ErUcnYg4hCcZGx-1" value="&lt;div&gt;If Sensor&amp;nbsp; &amp;gt; 70, increase speed&lt;/div&gt;&lt;div&gt;else if Sensor &amp;lt; 50, decrease speed&lt;br&gt;&lt;/div&gt;" style="text;html=1;align=center;verticalAlign=middle;resizable=0;points=[];autosize=1;strokeColor=none;fillColor=none;" vertex="1" parent="1">
          <mxGeometry x="215" y="93" width="210" height="40" as="geometry" />
        </mxCell>
      </root>
    </mxGraphModel>
  </diagram>
</mxfile>
